PathFileType	4	(X/Y/Z)	D:\TRACE\spot_10-12-23\spot_body_motion_2_5-platform.trc
DataRate	CameraRate	NumFrames	NumMarkers	Units	OrigDataRate	OrigDataStartFrame	OrigNumFrames
100.00	100.00	      42	5	mm	100.00	4376	      7000
Frame#	Time	Left_Front			Right_Front			Left_Aft			Right_Aft			Post			
		X1	Y1	Z1	X2	Y2	Z2	X3	Y3	Z3	X4	Y4	Z4	X5	Y5	Z5	

4376	43.750	-788.97650	33.33457	-634.64258	783.63422	37.88426	-627.82306	-705.86523	-13.10247	502.18677	711.50079	-12.09856	588.63989	-6.35903	783.34613	-922.53204	
4377	43.760	-790.30719	32.14753	-634.99487	782.54413	36.28014	-628.08411	-706.93365	-12.21604	502.02484	710.21808	-10.90244	588.37067	-7.33832	781.30475	-924.53210	
4378	43.770	-791.24542	30.70058	-635.16364	781.27002	35.09093	-628.56396	-708.07776	-11.18740	501.74661	709.22260	-9.77337	588.08405	-8.46945	779.40045	-926.23340	
4379	43.780	-792.56439	29.63456	-635.75763	780.30585	33.72381	-628.89618	-709.23352	-10.36509	501.47253	708.07391	-8.67745	587.68585	-9.31339	777.34583	-928.23224	
4380	43.790	-793.38312	28.02967	-636.23712	778.93549	32.22853	-629.23438	-710.36499	-9.44129	501.06427	706.86017	-7.73050	587.31677	-10.83423	775.37201	-930.22803	
4381	43.800	-794.55420	26.63733	-636.36853	778.06897	31.07379	-629.56348	-711.57611	-8.53879	500.84662	705.79767	-6.45840	587.14435	-11.99441	773.44745	-932.16498	
4382	43.810	-795.81458	25.52792	-636.74725	776.96735	29.57734	-629.98297	-712.61383	-7.42147	500.52359	704.63220	-5.32768	586.84027	-12.85506	771.48120	-933.94745	
4383	43.820	-796.90906	24.12224	-637.19806	775.87842	28.26160	-630.28650	-713.51837	-6.81145	500.64261	703.46973	-4.20974	586.59412	-13.83749	769.37299	-935.79541	
4384	43.830	-798.03424	22.67219	-637.67218	774.48730	26.89045	-630.93573	-714.91534	-5.69631	500.06775	702.34351	-3.08718	586.20984	-15.26783	767.57990	-937.82129	
4385	43.840	-799.18933	21.25590	-637.92023	773.42303	25.53848	-631.09705	-716.08160	-4.74190	499.55167	701.14978	-2.05716	585.91724	-16.51892	765.52472	-939.75171	
4386	43.850	-800.28711	19.83341	-638.22748	772.48309	24.03335	-631.22339	-716.99957	-3.62342	499.35516	700.21820	-0.79984	585.68085	-17.39422	763.51355	-941.76886	
4387	43.860	-801.35852	18.42107	-638.59540	771.38232	22.67180	-631.69202	-718.20728	-2.76102	498.95508	699.05164	0.30136	585.36902	-18.46419	761.48419	-943.45837	
4388	43.870	-802.47693	17.08328	-639.15631	770.45386	21.39807	-632.19757	-719.34686	-1.79985	498.66644	698.06842	1.52964	585.07947	-19.20570	759.41077	-945.47650	
4389	43.880	-803.58215	15.64719	-639.42688	768.94196	19.71323	-632.55676	-720.36035	-0.84596	498.29370	696.93878	2.52999	584.66394	-20.69256	757.21332	-947.37720	
4390	43.890	-804.65210	14.18579	-639.73346	768.18970	18.56493	-632.82520	-721.34033	0.23834	498.02341	695.78076	3.76297	584.20313	-21.91925	755.11041	-949.36707	
4391	43.900	-805.65350	12.61069	-639.95654	767.14014	16.98154	-633.13556	-722.52533	1.31581	497.74258	694.73792	4.81029	584.00000	-22.64789	753.03265	-951.12885	
4392	43.910	-806.71667	11.56012	-640.43573	765.92877	15.63586	-633.57147	-723.43292	2.13518	497.37695	693.50787	6.11226	583.69757	-23.70784	750.91107	-953.03845	
4393	43.920	-807.70300	9.83626	-640.75854	764.96967	14.26742	-633.94476	-724.58160	3.08445	497.04242	692.70856	7.20565	583.43365	-24.72600	748.94641	-955.23450	
4394	43.930	-808.64612	8.33732	-641.16962	763.98340	12.71357	-634.30212	-725.59351	4.02537	496.91266	691.55475	8.35531	583.02179	-26.09917	746.89020	-957.15112	
4395	43.940	-809.82355	7.01323	-641.41522	762.79846	11.43339	-634.52734	-726.68695	5.13077	496.70691	690.70135	9.44008	582.63397	-26.87031	744.79810	-958.96100	
4396	43.950	-810.63153	5.28717	-641.75220	761.86084	9.74560	-634.95361	-727.69525	6.01782	495.99930	689.72064	10.58397	582.39691	-27.73030	742.59424	-960.99493	
4397	43.960	-812.02893	4.50536	-642.17847	760.98029	8.54286	-635.20105	-728.85345	7.05298	495.57260	688.58270	11.85803	581.94153	-28.78256	740.49274	-962.95093	
4398	43.970	-812.67828	2.91030	-642.47565	759.85736	7.18414	-635.74371	-729.78552	8.01264	495.31717	687.81024	12.93430	581.69763	-29.66308	738.36182	-964.98138	
4399	43.980	-813.63678	1.19667	-642.69446	758.85022	5.70747	-635.93713	-730.55408	9.06728	495.04700	686.67596	14.20599	581.20111	-30.68057	736.36713	-966.63361	
4400	43.990	-814.86249	0.12687	-642.96582	758.24982	4.21000	-636.16547	-731.44214	9.93598	494.71716	685.63281	15.13713	580.90125	-31.74594	734.17841	-968.46857	
4401	44.000	-815.68872	-1.27742	-643.54218	756.92346	2.79650	-636.55011	-732.53156	10.85806	494.32672	684.82849	16.44413	580.64728	-32.78105	732.14917	-970.48962	
4402	44.010	-816.69684	-2.79929	-643.71985	755.93787	1.46028	-636.86560	-733.45544	11.66589	493.91086	683.73322	17.38087	580.33142	-33.52553	729.97406	-972.18866	
4403	44.020	-817.52704	-4.24118	-644.06622	755.21069	0.08902	-637.37109	-734.33447	12.85403	493.65723	683.20892	18.69960	580.03503	-34.24411	727.90198	-974.12744	
4404	44.030	-818.25848	-5.67363	-644.40381	754.39819	-1.19158	-637.47626	-735.11578	13.66308	493.60419	682.23120	19.68347	579.57849	-35.36512	725.75854	-975.76611	
4405	44.040	-819.10474	-7.02959	-644.68683	753.33752	-2.84007	-637.84796	-736.07672	14.71799	492.83127	680.89618	20.74446	579.11981	-35.94570	723.78473	-977.59399	
4406	44.050	-820.29578	-8.30798	-644.90497	752.60645	-3.89408	-638.21692	-736.91010	15.63503	492.49332	680.25848	21.86912	578.78571	-37.06823	721.66614	-979.33319	
4407	44.060	-820.93018	-9.59329	-645.29376	751.72852	-5.55924	-638.57629	-737.70142	16.50699	492.19617	679.62640	22.96893	578.47467	-37.86821	719.68402	-981.23090	
4408	44.070	-821.54968	-11.10274	-645.45746	751.12122	-6.77712	-638.65082	-738.60144	17.59591	491.79337	678.70953	24.20508	578.10437	-38.63927	717.65369	-982.91742	
4409	44.080	-822.34259	-12.40495	-645.76447	750.16370	-8.04273	-638.93311	-739.22064	18.29503	491.63916	677.94720	25.07691	577.90356	-39.34113	715.51733	-984.60895	
4410	44.090	-823.02649	-13.93335	-646.03528	749.58429	-9.40571	-639.23810	-740.10944	19.19577	491.17859	677.12390	26.30482	577.40021	-40.06327	713.52167	-986.54419	
4411	44.100	-823.73688	-15.37300	-646.49585	748.81348	-10.77610	-639.42578	-741.00580	20.12324	490.80484	676.37592	27.30466	577.00653	-40.68936	711.48755	-987.96204	
4412	44.110	-824.68988	-16.55379	-646.70422	748.04645	-12.02615	-639.93500	-741.47681	21.03035	490.61722	675.79639	28.41921	576.74213	-41.27739	709.61493	-989.86255	
4413	44.120	-825.30902	-17.65327	-646.99615	747.16541	-13.37786	-640.17902	-742.22754	21.97909	490.41614	675.06293	29.33792	576.49182	-42.16043	707.59070	-991.62128	
4414	44.130	-825.86505	-19.25007	-647.10968	746.42358	-14.72084	-640.48969	-742.88782	22.80799	490.08997	674.48474	30.40427	576.06439	-42.84771	705.65875	-993.26831	
4415	44.140	-826.64600	-20.31151	-647.49353	746.17590	-15.90976	-640.63147	-743.47028	23.64942	489.58606	673.80475	31.49787	575.71521	-43.60072	703.68719	-995.06427	
4416	44.150	-827.12921	-21.58110	-647.60059	745.49963	-17.29043	-640.79797	-743.87689	24.49804	489.16199	673.12665	32.35094	575.41211	-44.00639	701.92560	-996.40692	
4417	44.160	-827.60962	-22.77145	-647.88702	745.04230	-18.59615	-640.93896	-744.64429	25.40747	488.82599	672.57935	33.38705	575.00427	-44.73346	700.05573	-998.22540	
